<?xml version="1.0"?>
<svg version="1.1" xmlns="http://www.w3.org/2000/svg" width="400px" height="200px" style=""><path fill="#cfc92b" d="M1.82,134.645q0-7.02,4.16-13.91q-4.81-3.055-4.81-9.035q0-7.215,6.37-12.805q7.15-6.305,18.46-6.305q5.2,0,11.18,1.495q1.365,0.325,11.635,5.0375t14.755,4.7125q2.99,0,4.485-1.69q0.78-0.845,0.78-1.82t-0.845-1.755q-0.455-0.65-0.455-0.845t0.3575-0.195t1.235,1.1375t0.8775,2.665t-2.0475,2.925t-5.1675,1.3975q-4.875,0-15.145-4.7125t-12.9025-5.2325t-6.0125-0.52q-13.455,0-21.19,8.71q-0.91,0.975-2.145,3.9325t-1.235,5.6875q0,3.77,2.665,5.85q3.38-4.94,7.995-7.865t9.36-2.925q5.85,0,5.85,4.55q0,5.46-6.4025,11.8625t-11.8625,6.4025q-3.51,0-3.51-2.99q0-1.04,0.5525-1.82t1.3325-0.585l-0.13,1.495q0,0.975,2.99,0.975q4.42,0,9.3275-4.55t5.9475-8.905q0.26-0.975,0.26-1.755q0-2.925-3.7375-2.925t-7.735,2.86t-7.5075,7.54q0.26,0.13,2.015,0.52l3.9,0.13q2.86,0.13,2.86,0.65q0,0.91-2.73,0.91l-0.39,0q-3.965,0-6.5-0.975q-5.005,7.67-5.005,14.105q0,8.32,6.435,8.32q7.28,0,15.145-10.14l12.74-18.98q7.15-10.4,12.415-10.66l2.47,0.585q1.17,0.65,1.17,1.95t-0.65,1.3l-2.08-0.325q-4.485,0-11.505,9.685l-12.935,18.07q-8.32,9.685-15.925,9.685q-5.2,0-7.1825-2.795t-1.9825-8.125z M61.79355,113.0975q0.8775,0.6175,0.8775,1.4625t-0.8125,1.4625t-1.7875,0.6175t-1.7875-0.715t-0.8125-1.625q0-1.82,2.47-1.82q0.975,0,1.8525,0.6175z M48.17605,139.715q-3.315,0-3.315-4.29q0-3.51,3.835-9.7175t6.175-6.2725q0.65,0,1.4625,0.52t0.8125,1.04q-0.325,0.455-0.78,1.0075t-0.975,1.2025t-1.43,1.8525t-1.755,2.3075q-4.875,6.305-4.875,8.6775t1.625,2.3725q1.365,0,3.705-1.495q5.46-3.38,8.645-7.41q1.17-1.495,1.5925-1.495t0.4225,0.52t-1.495,2.08t-2.3725,2.47t-1.2025,1.2025t-1.2025,1.105t-1.3325,1.1375t-1.3,0.975t-1.495,0.9425t-1.495,0.6825q-1.365,0.585-3.25,0.585z M94.4671,138.22q-4.42,0-4.42-4.095q0-2.34,2.08-6.4025t4.355-6.8575q-4.03,1.95-9.295,7.0525t-7.345,10.6925q-0.325,0.52-1.105,0.52q-1.56,0-1.56-1.755q0.65-3.575,2.925-8.19q0.715-1.495,4.225-8.71q-5.07,3.315-8.6125,7.1175t-6.565,7.6375t-3.4125,3.835q-0.845,0-1.4625-0.78t-0.6175-1.56q0-1.17,3.38-8.58l-3.9,4.095q-1.43,1.43-1.7875,1.43t-0.3575-0.4225t0.52-0.9425q2.405-2.405,4.29-4.81t6.24-8.58q0.715-0.975,2.015-0.975t1.3,1.235q0,0.455-3.445,6.3375t-3.835,7.3775q2.665-2.925,7.995-7.865q7.995-7.41,10.53-7.41q0.78,0,1.43,0.455t0.65,1.0075t-2.535,4.9075q-2.47,4.485-2.73,5.33q7.215-6.045,7.215-6.11q6.11-4.745,8.775-4.745q0.78,0,1.4625,0.4875t0.6825,1.1375q0,0.13-4.225,5.4925t-4.745,8.8075q-0.13,1.17,0.455,1.755t2.1125,0.585t4.485-2.1125t6.0125-5.6875q1.17-1.3,1.5925-1.3t0.4225,0.325q0,0.455-0.585,1.04q-3.185,3.835-6.8575,6.5325t-5.7525,2.6975z M110.59815,139.845q-0.715,0-1.3-0.195q-4.16-1.17-4.16-4.68q0-4.55,5.72-10.53t10.27-5.98q1.495,0,2.4375,0.8125t0.9425,1.9825q0,3.64-5.4925,6.955t-8.9375,3.315q-0.52,0-0.91-0.13q-0.975,1.755-0.975,3.705q0,3.38,3.2175,3.38t8.3525-4.355q3.965-3.185,6.76-6.76q0.585-0.78,1.0075-0.78t0.4225,0.39t-0.52,1.105q-3.51,4.615-8.45,8.19t-8.385,3.575z M122.88315,121.125q0-0.78-1.6575-0.78t-4.7125,2.535q-4.095,3.38-6.37,7.085q0.39,0.13,0.845,0.13q2.47,0,6.5975-2.6325t5.1675-5.7525q0.13-0.325,0.13-0.585z M144.42025,134.645q0-7.02,4.16-13.91q-4.81-3.055-4.81-9.035q0-7.215,6.37-12.805q7.15-6.305,18.46-6.305q5.2,0,11.18,1.495q1.365,0.325,11.635,5.0375t14.755,4.7125q2.99,0,4.485-1.69q0.78-0.845,0.78-1.82t-0.845-1.755q-0.455-0.65-0.455-0.845t0.3575-0.195t1.235,1.1375t0.8775,2.665t-2.0475,2.925t-5.1675,1.3975q-4.875,0-15.145-4.7125t-12.9025-5.2325t-6.0125-0.52q-13.455,0-21.19,8.71q-0.91,0.975-2.145,3.9325t-1.235,5.6875q0,3.77,2.665,5.85q3.38-4.94,7.995-7.865t9.36-2.925q5.85,0,5.85,4.55q0,5.46-6.4025,11.8625t-11.8625,6.4025q-3.51,0-3.51-2.99q0-1.04,0.5525-1.82t1.3325-0.585l-0.13,1.495q0,0.975,2.99,0.975q4.42,0,9.3275-4.55t5.9475-8.905q0.26-0.975,0.26-1.755q0-2.925-3.7375-2.925t-7.735,2.86t-7.5075,7.54q0.26,0.13,2.015,0.52l3.9,0.13q2.86,0.13,2.86,0.65q0,0.91-2.73,0.91l-0.39,0q-3.965,0-6.5-0.975q-5.005,7.67-5.005,14.105q0,8.32,6.435,8.32q7.28,0,15.145-10.14l12.74-18.98q7.15-10.4,12.415-10.66l2.47,0.585q1.17,0.65,1.17,1.95t-0.65,1.3l-2.08-0.325q-4.485,0-11.505,9.685l-12.935,18.07q-8.32,9.685-15.925,9.685q-5.2,0-7.1825-2.795t-1.9825-8.125z M205.4013,125.22q0,2.275-4.355,7.605q-5.135,6.305-8.775,6.305l-1.04,0q-1.69,0-2.665-1.755q-0.78-1.235-0.78-2.73q0-3.9,5.6875-10.9525t9.1975-7.0525q3.315,0,3.315,3.51q0,0.91-0.325,2.34q0.065,0.195,1.235,0.195t3.575-1.235q-0.065,1.105-5.135,3.185q0.065,0.26,0.065,0.585z M201.1763,121.84q-2.21,0-6.2725,5.2t-4.0625,7.67t1.56,2.47q2.795,0,7.085-5.07t4.29-7.28q-1.04-0.585-2.6-2.99z M260.9334,107.345l-0.13,2.08q0,4.225,4.55,4.225q3.77,0,7.605-2.6t3.835-5.265t-3.12-4.485q-2.08-1.235-6.5-1.235q-6.565,0-14.6575,3.12t-15.1775,10.01q-9.295,9.1-9.295,16.705q0,4.485,3.4125,7.215t8.9375,2.73q7.67,0,17.81-5.785q8.45-4.745,12.675-10.075l1.885-2.795q-1.17,0-9.685,0.6825t-9.75,0.975t-2.015,0.2925q-2.145,0-2.145-1.04q0-1.625,4.94-2.6975t16.705-1.0725t15.535,0.91q0.585,0.13,0.585,0.325q0,0.715-4.485,1.04q-5.59,0.455-5.72,0.455q-6.63,8.71-17.16,26.91q-0.585,1.04-1.1375,1.04t-0.5525-0.845q0-2.275,3.64-8.775l4.55-8.515q-4.16,3.575-10.595,6.695q-8.385,3.965-15.8275,3.965t-11.375-3.2175t-3.9325-8.6125q0-9.945,12.025-20.215q6.045-5.2,14.625-8.645t15.0475-3.445t9.9125,2.535q2.665,2.08,2.665,4.68q0,3.705-4.5825,7.1175t-9.0675,3.4125q-6.045,0-6.045-6.955q0-2.665,1.105-2.665q0.91,0,0.91,1.82z M295.26445,139.325q-4.875,0-4.875-5.395q0-2.73,1.43-5.98t3.12-5.46q-0.325,0.065-0.845,0.065q-1.56,0-2.6-2.21l-4.81,6.24q-4.03,5.005-4.68,5.005q-0.325,0-0.325-0.26q0-0.65,1.105-1.885q5.655-6.565,7.995-11.115q1.495-5.655,3.77-5.655q1.495,0,1.495,1.3t-1.625,3.315l-1.56,2.08q0,1.365,2.015,1.365q1.17,0,2.6-0.845l1.69-1.04q0.13-0.065,0.65-0.065t1.105,0.65t0.39,1.17l-4.485,5.655q-4.16,5.33-4.16,8.4175t2.86,3.0875q2.99,0,7.345-3.185q2.6-1.885,4.745-4.225q2.015-2.34,2.21-2.34q0.455,0,0.455,0.4875t-0.585,1.1375l-2.08,2.34q-1.755,1.82-3.9,3.51q-5.135,3.835-8.45,3.835z M326.443,113.0975q0.8775,0.6175,0.8775,1.4625t-0.8125,1.4625t-1.7875,0.6175t-1.7875-0.715t-0.8125-1.625q0-1.82,2.47-1.82q0.975,0,1.8525,0.6175z M312.8255,139.715q-3.315,0-3.315-4.29q0-3.51,3.835-9.7175t6.175-6.2725q0.65,0,1.4625,0.52t0.8125,1.04q-0.325,0.455-0.78,1.0075t-0.975,1.2025t-1.43,1.8525t-1.755,2.3075q-4.875,6.305-4.875,8.6775t1.625,2.3725q1.365,0,3.705-1.495q5.46-3.38,8.645-7.41q1.17-1.495,1.5925-1.495t0.4225,0.52t-1.495,2.08t-2.3725,2.47t-1.2025,1.2025t-1.2025,1.105t-1.3325,1.1375t-1.3,0.975t-1.495,0.9425t-1.495,0.6825q-1.365,0.585-3.25,0.585z M338.51155,118.46q1.755,0,1.755,1.365q0,0.39-0.195,0.78q-5.85,8.125-7.02,12.285q15.145-15.145,18.395-15.145q0.325-0.065,0.585-0.065q1.82,0,1.82,1.625q0,0.325-0.13,0.65t-2.6,3.51q-2.86,3.38-4.8425,6.5t-1.9825,5.2t0.91,2.08q2.86,0,9.945-7.865q0.13-0.13,0.455-0.585q0.975-1.17,1.17-1.17t0.195,0.65t-0.91,1.69q-8.06,9.165-11.44,9.165q-3.185,0-3.185-3.51t2.6-8.06l4.16-6.76q-4.42,3.25-7.865,7.1175t-6.2725,7.5075t-3.2825,3.64q-0.975,0-1.5275-0.8125t-0.5525-2.015t0.845-3.2175t2.145-4.875l-3.9,4.095q-1.43,1.43-1.7875,1.43t-0.3575-0.4225t0.52-0.9425q2.405-2.405,4.16-4.615q1.69-2.21,6.955-8.45q0.585-0.78,1.235-0.78z M378.4326,119.305q7.28-11.83,10.14-11.83q0.455,0,1.2675,0.2925t0.8125,0.8775q0,0.325-0.325,0.845q-5.2,6.37-7.735,9.555q-7.67,9.685-8.45,13.91q-0.195,0.91-0.195,1.82q0,2.925,2.405,2.925q4.81,0,12.545-8.905q0.65-0.65,1.105-0.7475t0.455,0.2275t-0.39,0.78q-7.54,9.035-13.39,10.075q-0.325,0.065-0.91,0.065q-2.015,0-3.0225-1.3975t-1.0075-3.0225q0-1.82,0.715-4.03l-5.265,5.265q-3.575,3.315-5.6225,3.315t-3.4125-1.105q-1.625-1.235-1.625-3.445q0-4.745,6.63-11.3425t12.155-6.5975q1.82,0,2.535,0.975q0.26,0.325,0.585,1.495z M359.2576,135.555q0,2.34,1.625,2.34q2.795,0,9.295-7.67q1.17-1.365,7.8-10.205q-0.455-0.78-1.56-0.78q-4.03,0-10.595,6.1425t-6.565,10.1725z"/><path fill="#" d=""/></svg>
